<svg width="31" height="30" viewBox="0 0 31 30" fill="none" xmlns="http://www.w3.org/2000/svg">
<rect x="0.5" y="6.10352e-05" width="30" height="30" rx="12" fill="#4FD1C5"/>
<path d="M15.6629 10.4676C15.6193 10.4259 15.5612 10.4026 15.5009 10.4026C15.4405 10.4026 15.3825 10.4259 15.3389 10.4676L9.94531 15.62C9.92241 15.642 9.90418 15.6683 9.89175 15.6974C9.87931 15.7266 9.87291 15.758 9.87295 15.7897L9.87207 20.6254C9.87207 20.874 9.97084 21.1125 10.1467 21.2883C10.3225 21.4641 10.5609 21.5629 10.8096 21.5629H13.625C13.7493 21.5629 13.8685 21.5135 13.9565 21.4256C14.0444 21.3377 14.0937 21.2185 14.0937 21.0942V17.1098C14.0937 17.0476 14.1184 16.988 14.1624 16.9441C14.2063 16.9001 14.266 16.8754 14.3281 16.8754H16.6719C16.734 16.8754 16.7936 16.9001 16.8376 16.9441C16.8816 16.988 16.9062 17.0476 16.9062 17.1098V21.0942C16.9062 21.2185 16.9556 21.3377 17.0435 21.4256C17.1314 21.5135 17.2507 21.5629 17.375 21.5629H20.1893C20.4379 21.5629 20.6764 21.4641 20.8522 21.2883C21.028 21.1125 21.1268 20.874 21.1268 20.6254V15.7897C21.1268 15.758 21.1204 15.7266 21.108 15.6974C21.0955 15.6683 21.0773 15.642 21.0544 15.62L15.6629 10.4676Z" fill="white"/>
<path d="M22.3821 14.6537L20.1907 12.5573V9.37592C20.1907 9.2516 20.1413 9.13237 20.0534 9.04446C19.9655 8.95655 19.8463 8.90717 19.722 8.90717H18.3157C18.1914 8.90717 18.0722 8.95655 17.9843 9.04446C17.8964 9.13237 17.847 9.2516 17.847 9.37592V10.3134L16.1501 8.69095C15.9913 8.53041 15.7552 8.43842 15.5 8.43842C15.2457 8.43842 15.0102 8.53041 14.8514 8.69125L8.61993 14.6532C8.43771 14.8289 8.41485 15.1181 8.58068 15.3085C8.62232 15.3566 8.6733 15.3957 8.73053 15.4234C8.78776 15.4512 8.85003 15.467 8.91356 15.4699C8.97709 15.4728 9.04054 15.4627 9.10006 15.4403C9.15958 15.4179 9.21392 15.3837 9.25978 15.3396L15.3389 9.5306C15.3825 9.48888 15.4405 9.46559 15.5009 9.46559C15.5612 9.46559 15.6193 9.48888 15.6629 9.5306L21.7426 15.3396C21.8321 15.4255 21.9521 15.4723 22.0762 15.4699C22.2002 15.4675 22.3183 15.416 22.4044 15.3267C22.5843 15.1404 22.5693 14.8328 22.3821 14.6537Z" fill="white"/>
</svg>
